<svg width="120" height="48" viewBox="0 0 120 48" fill="none" xmlns="http://www.w3.org/2000/svg">
<path d="M12.5856 22.5294C13.0059 21.2059 14.1267 19.5882 14.9673 19.2941C13.7064 22.6765 15.5277 25.1765 16.9287 25.1765C19.1703 25.1765 18.4698 21.7941 18.4698 20.9118C18.3297 17.8235 19.3104 14.7353 21.2719 12.3824C22.2526 11.2059 24.7744 9.29412 26.8759 9C25.615 10.4706 25.4749 12.5294 26.4556 14C27.2962 15.4706 29.2576 15.7647 30.2383 18.2647C31.219 20.9118 29.5378 25.0294 31.219 25.3235C32.62 25.6176 34.4413 22.9706 34.021 19.8824C35.422 21.2059 36.1225 24.7353 35.9824 26.3529C35.422 32.9706 32.1997 39 23.9338 39C13.9866 39 10.4841 29.5882 12.5856 22.5294Z" fill="#FFDEA3"/>
<path d="M28.8002 34.6118C28.8002 37.6836 26.7002 39.0001 24.0002 39.0001C21.3002 39.0001 19.2002 37.6836 19.2002 34.6118C19.2002 32.5639 24.0002 25.2501 24.0002 25.2501C24.0002 25.2501 28.8002 32.5639 28.8002 34.6118Z" fill="white"/>
<path d="M84.5856 22.5294C85.0059 21.2059 86.1267 19.5882 86.9673 19.2941C85.7064 22.6765 87.5277 25.1765 88.9287 25.1765C91.1703 25.1765 90.4698 21.7941 90.4698 20.9118C90.3297 17.8235 91.3104 14.7353 93.2719 12.3824C94.2526 11.2059 96.7744 9.29412 98.8759 9C97.615 10.4706 97.4749 12.5294 98.4556 14C99.2962 15.4706 101.258 15.7647 102.238 18.2647C103.219 20.9118 101.538 25.0294 103.219 25.3235C104.62 25.6176 106.441 22.9706 106.021 19.8824C107.422 21.2059 108.123 24.7353 107.982 26.3529C107.422 32.9706 104.2 39 95.9338 39C85.9866 39 82.4841 29.5882 84.5856 22.5294Z" fill="#2E347F"/>
<path d="M100.8 34.6118C100.8 37.6836 98.7002 39.0001 96.0002 39.0001C93.3002 39.0001 91.2002 37.6836 91.2002 34.6118C91.2002 32.5639 96.0002 25.2501 96.0002 25.2501C96.0002 25.2501 100.8 32.5639 100.8 34.6118Z" fill="#3E4489"/>
</svg>
