<svg width="19" height="19" viewBox="0 0 19 19" fill="none" xmlns="http://www.w3.org/2000/svg">
<path d="M2.71429 9.5C2.71429 5.74192 5.7332 2.71429 9.43399 2.71429C11.0827 2.71429 12.5948 3.31345 13.7664 4.31247L12.1185 6.09756C11.637 6.61915 12.007 7.46415 12.7169 7.46416L18.1856 7.46427C18.6353 7.46428 18.9999 7.09972 18.9999 6.65L19 1.10733C19 0.230182 17.9234 -0.190788 17.3284 0.453734L15.6082 2.31718C13.9554 0.875491 11.7973 0 9.43399 0C4.21335 0 0 4.26373 0 9.5C0 14.7363 4.21335 19 9.43399 19C13.717 19 17.3212 16.1292 18.478 12.2108C18.6902 11.4919 18.2795 10.7371 17.5606 10.5249C16.8417 10.3127 16.087 10.7234 15.8748 11.4423C15.0456 14.251 12.4686 16.2857 9.43399 16.2857C5.7332 16.2857 2.71429 13.2581 2.71429 9.5Z" fill="white"/>
</svg>
