<svg width="120" height="48" viewBox="0 0 120 48" fill="none" xmlns="http://www.w3.org/2000/svg">
<path d="M16.7143 24.5C16.7143 20.7419 19.7332 17.7143 23.434 17.7143C25.0827 17.7143 26.5948 18.3134 27.7664 19.3125L26.1185 21.0976C25.637 21.6192 26.007 22.4641 26.7169 22.4642L32.1856 22.4643C32.6353 22.4643 32.9999 22.0997 32.9999 21.65L33 16.1073C33 15.2302 31.9234 14.8092 31.3284 15.4537L29.6082 17.3172C27.9554 15.8755 25.7973 15 23.434 15C18.2133 15 14 19.2637 14 24.5C14 29.7363 18.2133 34 23.434 34C27.717 34 31.3212 31.1292 32.478 27.2108C32.6902 26.4919 32.2795 25.7371 31.5606 25.5249C30.8417 25.3127 30.087 25.7234 29.8748 26.4423C29.0456 29.251 26.4686 31.2857 23.434 31.2857C19.7332 31.2857 16.7143 28.2581 16.7143 24.5Z" fill="white"/>
<path d="M88.7143 24.5C88.7143 20.7419 91.7332 17.7143 95.434 17.7143C97.0827 17.7143 98.5948 18.3134 99.7664 19.3125L98.1185 21.0976C97.637 21.6192 98.007 22.4641 98.7169 22.4642L104.186 22.4643C104.635 22.4643 105 22.0997 105 21.65L105 16.1073C105 15.2302 103.923 14.8092 103.328 15.4537L101.608 17.3172C99.9554 15.8755 97.7973 15 95.434 15C90.2133 15 86 19.2637 86 24.5C86 29.7363 90.2133 34 95.434 34C99.717 34 103.321 31.1292 104.478 27.2108C104.69 26.4919 104.279 25.7371 103.561 25.5249C102.842 25.3127 102.087 25.7234 101.875 26.4423C101.046 29.251 98.4686 31.2857 95.434 31.2857C91.7332 31.2857 88.7143 28.2581 88.7143 24.5Z" fill="#2E347F"/>
</svg>
