<svg width="114" height="46" viewBox="0 0 114 46" fill="none" xmlns="http://www.w3.org/2000/svg">
<g clip-path="url(#clip0_702_4145)">
<g filter="url(#filter0_d_702_4145)">
<path d="M8.27933 20.2465L11.2988 22.5612L8.25253 24.7925L5.23306 22.4778L8.27933 20.2465Z" fill="white"/>
<path d="M10.3721 23.293L10.3814 21.7043L25.4967 21.9122C25.6455 21.9143 25.7879 21.9754 25.8926 22.0821C25.9972 22.1888 26.0555 22.3324 26.0547 22.4813L26.0519 22.9473C26.051 23.0962 25.991 23.2381 25.8852 23.342C25.7793 23.4458 25.6362 23.503 25.4873 23.5009L10.3721 23.293Z" fill="white"/>
<path d="M13.2891 18.4731L13.2387 26.7018L15.0811 28.6136L16.2716 22.8451L15.147 16.2486L13.2891 18.4731Z" fill="white"/>
<path d="M32.4327 25.4752L32.4679 19.5063L29.8496 18.3843L29.8034 26.5231L32.4327 25.4752Z" fill="#8D70E5"/>
<path d="M18.2654 19.3709L18.2288 36.6811L28.5557 36.8007L28.5941 19.4924L18.2654 19.3709Z" fill="#FFCDC5"/>
<path d="M18.2483 27.7275L18.2464 28.3697L28.5733 28.4893L28.5752 27.8471L18.2483 27.7275Z" fill="#8D70E5"/>
<path d="M18.2533 24.8554L18.2514 25.4976L28.5801 25.6191L28.582 24.9769L18.2533 24.8554Z" fill="#8D70E5"/>
<path d="M18.261 21.9848L18.2591 22.627L28.586 22.7466L28.5879 22.1044L18.261 21.9848Z" fill="#8D70E5"/>
<path d="M18.265 19.1144L18.265 19.7585L28.5918 19.8781L28.5938 19.2359L18.265 19.1144Z" fill="#8D70E5"/>
<path d="M18.229 25.5796L18.3947 8.27303L28.7232 8.43572L28.5556 25.7441L18.229 25.5796Z" fill="#FFCDC5"/>
<path d="M18.31 17.2277L18.3157 16.5855L28.6442 16.7482L28.6385 17.3904L18.31 17.2277Z" fill="#8D70E5"/>
<path d="M29.6984 19.1903L29.6598 25.738C29.6583 25.9881 29.8598 26.1936 30.1099 26.197L33.1526 26.2283C33.4026 26.2318 33.6065 26.0318 33.608 25.7818L33.6466 19.2341C33.6481 18.9841 33.4466 18.7786 33.1966 18.7751L30.1538 18.7438C29.9038 18.7404 29.6999 18.9403 29.6984 19.1903Z" fill="white"/>
<path d="M18.2817 20.0957L18.2873 19.4536L28.614 19.6181L28.6083 20.2603L18.2817 20.0957Z" fill="#8D70E5"/>
<path d="M18.2534 22.9678L18.2609 22.3238L28.5875 22.4883L28.5819 23.1305L18.2534 22.9678Z" fill="#8D70E5"/>
<path d="M18.228 25.8379L18.2336 25.1957L28.5603 25.3603L28.5546 26.0024L18.228 25.8379Z" fill="#8D70E5"/>
<path d="M15.0723 28.6135L15.1452 16.2429L29.2517 16.437C29.4575 16.4398 29.6611 16.4832 29.8508 16.5646C30.0405 16.646 30.2126 16.7638 30.3573 16.9114C30.502 17.0589 30.6164 17.2333 30.6941 17.4246C30.7717 17.6158 30.8111 17.8202 30.8098 18.0261L30.7554 27.2616C30.7529 27.6774 30.5854 28.0738 30.2898 28.3637C29.9941 28.6536 29.5945 28.8133 29.1788 28.8076L15.0723 28.6135V28.6135Z" fill="white"/>
<path d="M23.3286 17.4884C20.5388 17.4501 18.2638 19.6819 18.2474 22.4734C18.2309 25.2648 20.4792 27.5589 23.2689 27.5973C26.0587 27.6356 28.3337 25.4038 28.3501 22.6124C28.3666 19.8209 26.1183 17.5268 23.3286 17.4884Z" fill="#FF9977"/>
<path d="M23.3184 19.1166C21.4278 19.0906 19.8862 20.6034 19.875 22.4956C19.8639 24.3878 21.3874 25.9428 23.278 25.9688C25.1686 25.9948 26.7102 24.482 26.7214 22.5898C26.7325 20.6976 25.209 19.1426 23.3184 19.1166Z" fill="white"/>
<path d="M7.76049 27.8696C10.0804 27.5307 11.8947 25.305 11.8977 22.5694C11.9007 19.8338 10.1392 17.5589 7.82366 17.1563L7.76049 27.8696Z" fill="#FF9977"/>
<path d="M5.56553 21.9131C5.25306 21.5944 4.74344 21.5874 4.42726 21.8974C4.11109 22.2075 4.10808 22.7171 4.42055 23.0358C4.73302 23.3545 5.24264 23.3615 5.55882 23.0514C5.87499 22.7414 5.878 22.2318 5.56553 21.9131Z" fill="#FF9977"/>
</g>
<g filter="url(#filter1_d_702_4145)">
<path d="M114 22.5C114 22.5 104.627 26.5 98 26.5C91.3726 26.5 90 24.7091 90 22.5C90 20.2909 91.3726 18.5 98 18.5C104.627 18.5 114 22.5 114 22.5Z" fill="url(#paint0_linear_702_4145)" shape-rendering="crispEdges"/>
</g>
<g filter="url(#filter2_d_702_4145)">
<path d="M66.2793 20.2465L69.2988 22.5612L66.2525 24.7925L63.2331 22.4778L66.2793 20.2465Z" fill="white"/>
<path d="M68.3721 23.293L68.3814 21.7043L83.4967 21.9122C83.6455 21.9143 83.7879 21.9754 83.8926 22.0821C83.9972 22.1888 84.0555 22.3324 84.0547 22.4813L84.0519 22.9473C84.051 23.0962 83.991 23.2381 83.8852 23.342C83.7793 23.4458 83.6362 23.503 83.4873 23.5009L68.3721 23.293Z" fill="white"/>
<path d="M71.2891 18.4731L71.2387 26.7018L73.0811 28.6136L74.2716 22.8451L73.147 16.2486L71.2891 18.4731Z" fill="white"/>
<path d="M90.4327 25.4752L90.4679 19.5063L87.8496 18.3843L87.8034 26.5231L90.4327 25.4752Z" fill="#8D70E5"/>
<path d="M76.2654 19.3709L76.2288 36.6811L86.5557 36.8007L86.5941 19.4924L76.2654 19.3709Z" fill="#FFCDC5"/>
<path d="M76.2483 27.7275L76.2464 28.3697L86.5733 28.4893L86.5752 27.8471L76.2483 27.7275Z" fill="#8D70E5"/>
<path d="M76.2533 24.8554L76.2514 25.4976L86.5801 25.6191L86.582 24.9769L76.2533 24.8554Z" fill="#8D70E5"/>
<path d="M76.261 21.9848L76.2591 22.627L86.586 22.7466L86.5879 22.1044L76.261 21.9848Z" fill="#8D70E5"/>
<path d="M76.265 19.1144L76.265 19.7585L86.5918 19.8781L86.5938 19.2359L76.265 19.1144Z" fill="#8D70E5"/>
<path d="M76.229 25.5796L76.3947 8.27303L86.7232 8.43572L86.5556 25.7441L76.229 25.5796Z" fill="#FFCDC5"/>
<path d="M76.31 17.2277L76.3157 16.5855L86.6442 16.7482L86.6385 17.3904L76.31 17.2277Z" fill="#8D70E5"/>
<path d="M87.6984 19.1903L87.6598 25.738C87.6583 25.9881 87.8598 26.1936 88.1099 26.197L91.1526 26.2283C91.4026 26.2318 91.6065 26.0318 91.608 25.7818L91.6466 19.2341C91.6481 18.9841 91.4466 18.7786 91.1966 18.7751L88.1538 18.7438C87.9038 18.7404 87.6999 18.9403 87.6984 19.1903Z" fill="white"/>
<path d="M76.2817 20.0957L76.2873 19.4536L86.614 19.6181L86.6083 20.2603L76.2817 20.0957Z" fill="#8D70E5"/>
<path d="M76.2534 22.9678L76.2609 22.3238L86.5875 22.4883L86.5819 23.1305L76.2534 22.9678Z" fill="#8D70E5"/>
<path d="M76.228 25.8379L76.2336 25.1957L86.5603 25.3603L86.5546 26.0024L76.228 25.8379Z" fill="#8D70E5"/>
<path d="M73.0723 28.6135L73.1452 16.2429L87.2517 16.437C87.4575 16.4398 87.6611 16.4832 87.8508 16.5646C88.0405 16.646 88.2126 16.7638 88.3573 16.9114C88.502 17.0589 88.6164 17.2333 88.6941 17.4246C88.7717 17.6158 88.8111 17.8202 88.8098 18.0261L88.7554 27.2616C88.7529 27.6774 88.5854 28.0738 88.2898 28.3637C87.9941 28.6536 87.5945 28.8133 87.1788 28.8076L73.0723 28.6135V28.6135Z" fill="white"/>
<path d="M81.3286 17.4884C78.5388 17.4501 76.2638 19.6819 76.2474 22.4734C76.2309 25.2648 78.4792 27.5589 81.2689 27.5973C84.0587 27.6356 86.3337 25.4038 86.3501 22.6124C86.3666 19.8209 84.1183 17.5268 81.3286 17.4884Z" fill="#FF9977"/>
<path d="M81.3184 19.1166C79.4278 19.0906 77.8862 20.6034 77.875 22.4956C77.8639 24.3878 79.3874 25.9428 81.278 25.9688C83.1686 25.9948 84.7102 24.482 84.7214 22.5898C84.7325 20.6976 83.209 19.1426 81.3184 19.1166Z" fill="white"/>
<path d="M65.7605 27.8696C68.0804 27.5307 69.8947 25.305 69.8977 22.5694C69.9007 19.8338 68.1392 17.5589 65.8237 17.1563L65.7605 27.8696Z" fill="#FF9977"/>
<path d="M63.5655 21.9131C63.2531 21.5944 62.7434 21.5874 62.4273 21.8974C62.1111 22.2075 62.1081 22.7171 62.4206 23.0358C62.733 23.3545 63.2426 23.3615 63.5588 23.0514C63.875 22.7414 63.878 22.2318 63.5655 21.9131Z" fill="#FF9977"/>
</g>
</g>
<defs>
<filter id="filter0_d_702_4145" x="-4" y="0" width="53.2529" height="53.2527" filterUnits="userSpaceOnUse" color-interpolation-filters="sRGB">
<feFlood flood-opacity="0" result="BackgroundImageFix"/>
<feColorMatrix in="SourceAlpha" type="matrix" values="0 0 0 0 0 0 0 0 0 0 0 0 0 0 0 0 0 0 127 0" result="hardAlpha"/>
<feOffset dy="4"/>
<feGaussianBlur stdDeviation="2"/>
<feComposite in2="hardAlpha" operator="out"/>
<feColorMatrix type="matrix" values="0 0 0 0 0 0 0 0 0 0 0 0 0 0 0 0 0 0 0.25 0"/>
<feBlend mode="normal" in2="BackgroundImageFix" result="effect1_dropShadow_702_4145"/>
<feBlend mode="normal" in="SourceGraphic" in2="effect1_dropShadow_702_4145" result="shape"/>
</filter>
<filter id="filter1_d_702_4145" x="86" y="18.5" width="32" height="16" filterUnits="userSpaceOnUse" color-interpolation-filters="sRGB">
<feFlood flood-opacity="0" result="BackgroundImageFix"/>
<feColorMatrix in="SourceAlpha" type="matrix" values="0 0 0 0 0 0 0 0 0 0 0 0 0 0 0 0 0 0 127 0" result="hardAlpha"/>
<feOffset dy="4"/>
<feGaussianBlur stdDeviation="2"/>
<feComposite in2="hardAlpha" operator="out"/>
<feColorMatrix type="matrix" values="0 0 0 0 0 0 0 0 0 0 0 0 0 0 0 0 0 0 0.25 0"/>
<feBlend mode="normal" in2="BackgroundImageFix" result="effect1_dropShadow_702_4145"/>
<feBlend mode="normal" in="SourceGraphic" in2="effect1_dropShadow_702_4145" result="shape"/>
</filter>
<filter id="filter2_d_702_4145" x="54" y="0" width="53.2529" height="53.2527" filterUnits="userSpaceOnUse" color-interpolation-filters="sRGB">
<feFlood flood-opacity="0" result="BackgroundImageFix"/>
<feColorMatrix in="SourceAlpha" type="matrix" values="0 0 0 0 0 0 0 0 0 0 0 0 0 0 0 0 0 0 127 0" result="hardAlpha"/>
<feOffset dy="4"/>
<feGaussianBlur stdDeviation="2"/>
<feComposite in2="hardAlpha" operator="out"/>
<feColorMatrix type="matrix" values="0 0 0 0 0 0 0 0 0 0 0 0 0 0 0 0 0 0 0.25 0"/>
<feBlend mode="normal" in2="BackgroundImageFix" result="effect1_dropShadow_702_4145"/>
<feBlend mode="normal" in="SourceGraphic" in2="effect1_dropShadow_702_4145" result="shape"/>
</filter>
<linearGradient id="paint0_linear_702_4145" x1="90.6499" y1="22.4667" x2="114.234" y2="22.3396" gradientUnits="userSpaceOnUse">
<stop stop-color="#FFA800"/>
<stop offset="1" stop-color="#FF0000" stop-opacity="0"/>
</linearGradient>
<clipPath id="clip0_702_4145">
<rect width="114" height="45.2527" fill="white"/>
</clipPath>
</defs>
</svg>
