<svg width="24" height="30" viewBox="0 0 24 30" fill="none" xmlns="http://www.w3.org/2000/svg">
<path opacity="0.78" d="M0.585622 13.5294C1.00592 12.2059 2.12673 10.5882 2.96733 10.2941C1.70643 13.6765 3.52773 16.1765 4.92874 16.1765C7.17035 16.1765 6.46984 12.7941 6.46984 11.9118C6.32974 8.82353 7.31045 5.73529 9.27185 3.38235C10.2526 2.20588 12.7744 0.294118 14.8759 0C13.615 1.47059 13.4749 3.52941 14.4556 5C15.2962 6.47059 17.2576 6.76471 18.2383 9.26471C19.219 11.9118 17.5378 16.0294 19.219 16.3235C20.62 16.6176 22.4413 13.9706 22.021 10.8824C23.422 12.2059 24.1225 15.7353 23.9824 17.3529C23.422 23.9706 20.1997 30 11.9338 30C1.98663 30 -1.51589 20.5882 0.585622 13.5294Z" fill="white"/>
<path d="M16.8002 25.6118C16.8002 28.6836 14.7002 30.0001 12.0002 30.0001C9.3002 30.0001 7.2002 28.6836 7.2002 25.6118C7.2002 23.5639 12.0002 16.2501 12.0002 16.2501C12.0002 16.2501 16.8002 23.5639 16.8002 25.6118Z" fill="white"/>
</svg>
